<?xml version="1.0" encoding="utf-8"?><!-- Uploaded to: SVG Repo, www.svgrepo.com, Generator: SVG Repo Mixer Tools -->
<svg fill="#000000" width="800px" height="800px" viewBox="0 0 24 24" id="invoice-euro-left" data-name="Flat Line" xmlns="http://www.w3.org/2000/svg" class="icon flat-line"><path id="secondary" d="M19,3H8.87A8,8,0,0,1,6,17.93V20a1,1,0,0,0,1,1H19a1,1,0,0,0,1-1V4A1,1,0,0,0,19,3Z" style="fill: rgb(44, 169, 188); stroke-width: 2;"></path><path id="primary" d="M10,7.77A3,3,0,0,0,8,7H8a3,3,0,0,0-3,3H5a3,3,0,0,0,3,3H8a3,3,0,0,0,2-.77" style="fill: none; stroke: rgb(0, 0, 0); stroke-linecap: round; stroke-linejoin: round; stroke-width: 2;"></path><path id="primary-2" data-name="primary" d="M13,17h3m-1-4h1M4,10H7" style="fill: none; stroke: rgb(0, 0, 0); stroke-linecap: round; stroke-linejoin: round; stroke-width: 2;"></path><path id="primary-3" data-name="primary" d="M9,3H19a1,1,0,0,1,1,1V20a1,1,0,0,1-1,1H7a1,1,0,0,1-1-1V18" style="fill: none; stroke: rgb(0, 0, 0); stroke-linecap: round; stroke-linejoin: round; stroke-width: 2;"></path></svg>